<svg width="58" height="58" fill="none" xmlns="http://www.w3.org/2000/svg"><path d="M19.5 29c0-4.478 0-6.718 1.391-8.109C22.283 19.5 24.521 19.5 29 19.5c4.478 0 6.718 0 8.109 1.391C38.5 22.283 38.5 24.521 38.5 29c0 4.478 0 6.718-1.391 8.109C35.717 38.5 33.479 38.5 29 38.5c-4.478 0-6.718 0-8.109-1.391C19.5 35.717 19.5 33.479 19.5 29Z" stroke="#F2F1F4" stroke-width="1.5"/><circle cx="33.5" cy="24.5" r="1.5" stroke="#F2F1F4" stroke-width="1.5"/><path d="M33 39c-.62-2.225-2.066-4.218-4.123-5.666-2.22-1.561-5.005-2.387-7.861-2.331-.34-.001-.678.01-1.016.032" stroke="#F2F1F4" stroke-width="1.5" stroke-linejoin="round"/><path d="M30 35c1.701-1.327 3.535-2.007 5.386-2a7.792 7.792 0 0 1 3.114.662" stroke="#F2F1F4" stroke-width="1.5" stroke-linejoin="round"/><circle cx="29" cy="29" r="28.25" stroke="#fff" stroke-opacity=".15" stroke-width="1.5"/><path d="M29 .75A28.25 28.25 0 0 1 57.25 29" stroke="#fff" stroke-width="1.5"/></svg>