<svg width="21" height="20" fill="none" xmlns="http://www.w3.org/2000/svg"><circle cx="6.424" cy="6.25" r="1.25" stroke="#F2F1F4" stroke-width="1.25" stroke-linecap="round" stroke-linejoin="round"/><path d="M2.257 10c0-3.732 0-5.598 1.16-6.757 1.159-1.16 3.025-1.16 6.757-1.16 3.732 0 5.598 0 6.757 1.16 1.16 1.16 1.16 3.025 1.16 6.757 0 3.732 0 5.598-1.16 6.757-1.16 1.16-3.025 1.16-6.757 1.16-3.732 0-5.598 0-6.757-1.16-1.16-1.16-1.16-3.025-1.16-6.757Z" stroke="#F2F1F4" stroke-width="1.25"/><path d="M4.34 17.5c3.644-4.354 7.729-10.097 13.748-6.215" stroke="#F2F1F4" stroke-width="1.25"/></svg>